# xmcd
#
# Track frame offsets:
#	150
#	21813
#	39107
#	60318
#	81088
#	97413
#	113346
#	131318
#	143381
#	162019
#	175467
#	194056
#	209897
#	229239
#	249041
#	265973
#	287570
#
# Disc length: 4064 seconds
#
# Revision: 0
# Processed by: cddbd v1.5.2PL0 Copyright (c) Steve Scherf et al.
# Submitted via: EasyCDDAExtractor 10.0.1.1
#
DISCID=e40fde11
DTITLE=Nysay - Au pied du mur [CD 2)
DYEAR=2006
DGENRE=Rap
TTITLE0=On Vit L'époque
TTITLE1=Chaud
TTITLE2=Le Biz A Changé
TTITLE3=Jeunesse En Péril
TTITLE4=Le Ghetto Brûle
TTITLE5=On Arrive
TTITLE6=La Course A L'argent
TTITLE7=Etat Des Lieux
TTITLE8=Que S'passe T-il ?
TTITLE9=Les Kings
TTITLE10=En France
TTITLE11=Ma Jeunesse
TTITLE12=Vivre Autrement Feat Supa Lex
TTITLE13=So Come Come Now
TTITLE14=Pow
TTITLE15=Nysay-Movez'Lang Feat Movez'La
TTITLE16=Sans Rancunes Feat Darly
EXTD=
EXTT0=
EXTT1=
EXTT2=
EXTT3=
EXTT4=
EXTT5=
EXTT6=
EXTT7=
EXTT8=
EXTT9=
EXTT10=
EXTT11=
EXTT12=
EXTT13=
EXTT14=
EXTT15=
EXTT16=
PLAYORDER=
